# xmcd CD database file
# Copyright (C) 1993-1998 Ti Kan
#
# Track frame offsets:
#	150
#	41982
#	68917
#	100840
#	179505
#	209635
#	242557
#	290062
#
# Disc length: 4314 seconds
#
# Revision: 1
# Processed by: cddbd v1.4b41PL1 Copyright (c) Steve Scherf et al.
# Submitted via: xmcd 2.3 PL0
#
DISCID=7f10d808
DTITLE=Big Joe Turner's Memphis Blues Caravan - Live
DYEAR=1900
DGENRE=
TTITLE0=Blue Monk/Things Ain't What They Used To Be/Woke Up This Morning
TTITLE1=Bad Luck
TTITLE2=Take Home Pay
TTITLE3=Aching Heart
TTITLE4=No Response
TTITLE5=Something About You
TTITLE6=Blood In Your Hands
TTITLE7=Somebody Have Mercy
EXTD=
EXTT0=
EXTT1=
EXTT2=
EXTT3=
EXTT4=
EXTT5=
EXTT6=
EXTT7=
PLAYORDER=
